<svg xmlns="http://www.w3.org/2000/svg" viewBox="0 0 64 64">
  <!-- Background Gradient Circle -->
  <defs>
    <linearGradient id="bgGradient" x1="0%" y1="0%" x2="100%" y2="100%">
      <stop offset="0%" style="stop-color:#7209b7;stop-opacity:1" />
      <stop offset="50%" style="stop-color:#ec4899;stop-opacity:1" />
      <stop offset="100%" style="stop-color:#00b4d8;stop-opacity:1" />
    </linearGradient>
    <filter id="shadow">
      <feDropShadow dx="0" dy="2" stdDeviation="2" flood-opacity="0.3"/>
    </filter>
  </defs>
  
  <!-- Background Circle -->
  <circle cx="32" cy="32" r="30" fill="url(#bgGradient)"/>
  
  <!-- Airplane with Pet -->
  <g transform="translate(32, 32)" filter="url(#shadow)">
    <!-- Airplane Body -->
    <path d="M -2 -8 L 2 -8 L 4 4 L 2 10 L -2 10 L -4 4 Z" fill="white" opacity="0.95"/>
    
    <!-- Airplane Wings -->
    <path d="M -15 -2 L -4 0 L -4 4 L -15 2 Z" fill="white" opacity="0.9"/>
    <path d="M 15 -2 L 4 0 L 4 4 L 15 2 Z" fill="white" opacity="0.9"/>
    
    <!-- Airplane Tail -->
    <path d="M -6 8 L -2 10 L 2 10 L 6 8 Z" fill="white" opacity="0.85"/>
    
    <!-- Pet Paw on Airplane (smaller, centered) -->
    <g transform="scale(0.7)">
      <!-- Main pad -->
      <ellipse cx="0" cy="-2" rx="3" ry="4" fill="#0a0a0f" opacity="0.8"/>
      
      <!-- Toes -->
      <circle cx="-2" cy="-6" r="1.2" fill="#0a0a0f" opacity="0.8"/>
      <circle cx="2" cy="-6" r="1.2" fill="#0a0a0f" opacity="0.8"/>
      <circle cx="0" cy="-8" r="1" fill="#0a0a0f" opacity="0.8"/>
    </g>
  </g>
  
  <!-- Small stars around -->
  <circle cx="12" cy="12" r="1" fill="white" opacity="0.6">
    <animate attributeName="opacity" values="0.6;1;0.6" dur="2s" repeatCount="indefinite"/>
  </circle>
  <circle cx="52" cy="16" r="1" fill="white" opacity="0.6">
    <animate attributeName="opacity" values="0.6;1;0.6" dur="2s" begin="0.5s" repeatCount="indefinite"/>
  </circle>
  <circle cx="48" cy="48" r="1" fill="white" opacity="0.6">
    <animate attributeName="opacity" values="0.6;1;0.6" dur="2s" begin="1s" repeatCount="indefinite"/>
  </circle>
</svg>